<?xml version="1.0" encoding="UTF-8" standalone="no"?>
<svg
   xmlns:dc="http://purl.org/dc/elements/1.1/"
   xmlns:cc="http://creativecommons.org/ns#"
   xmlns:rdf="http://www.w3.org/1999/02/22-rdf-syntax-ns#"
   xmlns:svg="http://www.w3.org/2000/svg"
   xmlns="http://www.w3.org/2000/svg"
   xmlns:sodipodi="http://sodipodi.sourceforge.net/DTD/sodipodi-0.dtd"
   xmlns:inkscape="http://www.inkscape.org/namespaces/inkscape"
   aria-labelledby="simpleicons-googleplus-icon"
   role="img"
   viewBox="0 0 24 24"
   version="1.1"
   id="svg5"
   sodipodi:docname="googleplus.svg"
   inkscape:version="0.92.2 (5c3e80d, 2017-08-06)">
  <metadata
     id="metadata11">
    <rdf:RDF>
      <cc:Work
         rdf:about="">
        <dc:format>image/svg+xml</dc:format>
        <dc:type
           rdf:resource="http://purl.org/dc/dcmitype/StillImage" />
      </cc:Work>
    </rdf:RDF>
  </metadata>
  <defs
     id="defs9" />
  <sodipodi:namedview
     pagecolor="#ffffff"
     bordercolor="#666666"
     borderopacity="1"
     objecttolerance="10"
     gridtolerance="10"
     guidetolerance="10"
     inkscape:pageopacity="0"
     inkscape:pageshadow="2"
     inkscape:window-width="696"
     inkscape:window-height="480"
     id="namedview7"
     showgrid="false"
     inkscape:zoom="9.8333333"
     inkscape:cx="12"
     inkscape:cy="3.8644068"
     inkscape:window-x="0"
     inkscape:window-y="0"
     inkscape:window-maximized="0"
     inkscape:current-layer="svg5" />
  <title
     id="simpleicons-googleplus-icon">Google+ icon</title>
  <path
     d="M7.635 10.909v2.619h4.335c-.173 1.125-1.31 3.295-4.331 3.295-2.604 0-4.731-2.16-4.731-4.823 0-2.662 2.122-4.822 4.728-4.822 1.485 0 2.479.633 3.045 1.178l2.073-1.994c-1.33-1.245-3.056-1.995-5.115-1.995C3.412 4.365 0 7.785 0 12s3.414 7.635 7.635 7.635c4.41 0 7.332-3.098 7.332-7.461 0-.501-.054-.885-.12-1.265H7.635zm16.365 0h-2.183V8.726h-2.183v2.183h-2.182v2.181h2.184v2.184h2.189V13.09H24"
     id="path3"
     style="fill:#e6e6e6;fill-opacity:1" />
</svg>
